<svg id="Capa_1" enable-background="new 0 0 512 512" height="512" viewBox="0 0 512 512" width="512" xmlns="http://www.w3.org/2000/svg"><g><path d="m443.006 307.033c-10.036-13.749-23.944-23.988-39.619-29.661v-21.458c8.747-3.098 15.032-11.449 15.032-21.245 0-50.471-41.061-91.531-91.531-91.531h-124.397c-11.563 0-19.059 6.86-21.969 15.036h-10.907c-5.812 0-11.558 1.002-16.989 2.904l-43.857-145.06c-3.595-11.894-16.195-18.651-28.089-15.049-5.762 1.741-10.5 5.622-13.343 10.929-2.842 5.306-3.449 11.4-1.707 17.162l31.943 105.656c1.199 3.965 5.388 6.207 9.35 5.008 3.965-1.198 6.208-5.384 5.009-9.35l-31.944-105.655c-.583-1.927-.379-3.964.571-5.738s2.535-3.071 4.46-3.654c3.979-1.202 8.189 1.055 9.392 5.032l44.708 147.877c-4.705 3.496-8.737 7.741-11.958 12.518l-4.315-14.275c-1.198-3.966-5.382-6.206-9.35-5.009-3.965 1.198-6.208 5.384-5.009 9.349l4.487 14.843c3.559 11.771 5.37 23.972 5.391 36.267v53.39c0 22.807 18.248 41.418 40.908 42.036.384.02.77.029 1.158.029h156.999c4.142 0 7.5-3.357 7.5-7.5s-3.358-7.5-7.5-7.5h-156.999c-4.154 0-7.533-3.38-7.533-7.534s3.379-7.534 7.534-7.534h214.25c4.64 0 9.228.475 13.706 1.381v15.472c-4.437-1.159-9.037-1.784-13.706-1.784h-24.599c-4.142 0-7.5 3.357-7.5 7.5s3.358 7.5 7.5 7.5h24.599c4.728 0 9.365.858 13.706 2.468v115.652c0 33.909-27.587 61.496-61.496 61.496h-201.026c-4.142 0-7.5 3.357-7.5 7.5s3.358 7.5 7.5 7.5h201.025c42.18 0 76.496-34.316 76.496-76.496v-105.75c1.146 1.209 2.225 2.489 3.218 3.849 4.228 5.791 11.036 9.249 18.213 9.249 4.8 0 9.39-1.499 13.273-4.334 4.862-3.549 8.051-8.778 8.979-14.726.928-5.946-.515-11.899-4.064-16.76zm-240.515-148.895h124.397c42.199 0 76.531 34.332 76.531 76.531 0 4.154-3.38 7.534-7.534 7.534s-7.534-3.38-7.534-7.534c0-33.891-27.572-61.463-61.463-61.463h-124.397c-4.796 0-8.328-2.699-8.328-7.541.089-1.636.922-7.527 8.328-7.527zm-58.783 25.954c3.126 12.437 4.729 25.199 4.729 38.049v9.049c0 4.154-3.379 7.534-7.534 7.534s-7.534-3.38-7.534-7.534v-9.049c0-.071-.004-.142-.004-.213v-12.488c0-.006.001-.013.001-.019 0-9.564 3.82-18.632 10.342-25.329zm230.973 88.223h-214.25c-11.05 0-20.261 7.997-22.166 18.506-3.083-4.395-4.9-9.739-4.9-15.503v-22.895c2.358.84 4.895 1.301 7.538 1.301 12.425 0 22.534-10.108 22.534-22.534v-9.049c0-15.8-2.183-31.487-6.49-46.677 4.028-1.496 8.318-2.291 12.668-2.291h10.686c.998 3.043 2.615 5.826 4.825 8.142 2.999 3.144 8.446 6.891 17.365 6.891h124.397c25.62 0 46.463 20.843 46.463 46.463 0 9.798 6.287 18.15 15.036 21.247v17.536c-4.501-.745-9.082-1.137-13.706-1.137zm57.568 49.165c-.31 1.988-1.376 3.736-3.003 4.924-1.299.948-2.83 1.449-4.429 1.449-2.44 0-4.663-1.127-6.098-3.093-4.185-5.734-9.426-10.502-15.333-14.158v-17.053c10.807 4.901 20.352 12.529 27.504 22.328 1.188 1.625 1.67 3.615 1.359 5.603z"/></g></svg>